<?xml version="1.0" encoding="iso-8859-1"?>
<!-- Generator: Adobe Illustrator 19.0.0, SVG Export Plug-In . SVG Version: 6.00 Build 0)  -->
<svg version="1.1" id="Capa_1" xmlns="http://www.w3.org/2000/svg" xmlns:xlink="http://www.w3.org/1999/xlink" x="0px" y="0px"
	 viewBox="0 0 512.011 512.011" style="enable-background:new 0 0 512.011 512.011;" xml:space="preserve">
<g>
	<g>
		<path d="M447.892,7.467c-24.646-9.884-52.154-9.884-76.8,0c-25.571,10.364-45.878,30.609-56.32,56.149l-95.488,217.941
			c-0.417,1.016-0.635,2.102-0.64,3.2c-0.023,4.713,3.778,8.552,8.491,8.576c1.115-0.013,2.217-0.245,3.243-0.683l217.515-95.317
			c12.784-5.123,24.397-12.787,34.133-22.528c9.719-9.728,17.379-21.314,22.523-34.066C525.706,88.292,500.34,28.624,447.892,7.467z
			 M441.492,181.547l-197.802,86.698l86.784-197.973c13.066-32.2,44.354-53.261,79.104-53.248
			c34.898-0.05,66.309,21.155,79.311,53.54C506.447,114.299,485.227,163.988,441.492,181.547z"/>
	</g>
</g>
<g>
	<g>
		<path d="M493.204,54.144c-0.937-9.128-4.937-17.67-11.349-24.235c-6.573-6.386-15.115-10.357-24.235-11.264
			c-9.83-1.02-19.764-0.003-29.184,2.987c-10.923,3.326-21.343,8.12-30.976,14.251c-21.852,13.892-40.38,32.42-54.272,54.272
			L219.966,280.192c-0.88,1.371-1.348,2.965-1.351,4.594c-0.008,4.713,3.806,8.54,8.519,8.548c1.635-0.004,3.234-0.478,4.608-1.365
			l189.867-123.222c10.953-6.911,21.087-15.041,30.208-24.235c9.164-9.125,17.266-19.259,24.149-30.208
			c6.131-9.632,10.925-20.053,14.251-30.976C493.207,73.908,494.224,63.974,493.204,54.144z M473.919,78.72
			c-2.901,9.42-7.064,18.405-12.373,26.709c-6.208,9.836-13.508,18.939-21.76,27.136c-8.246,8.291-17.407,15.62-27.307,21.845
			L255.976,255.957L357.866,99.371c12.537-19.722,29.259-36.444,48.981-48.981c8.302-5.313,17.288-9.476,26.709-12.373
			c5.534-1.701,11.278-2.62,17.067-2.731c1.686,0.034,3.367,0.177,5.035,0.427c5.363,0.458,10.415,2.713,14.336,6.4
			c3.687,3.921,5.942,8.973,6.4,14.336C477.076,63.963,476.234,71.538,473.919,78.72z"/>
	</g>
</g>
<g>
	<g>
		<path d="M482.026,30.755c-3.065-3.58-8.452-3.996-12.032-0.931L222.526,277.291c-1.628,1.614-2.537,3.816-2.524,6.108
			c0.027,4.713,3.87,8.511,8.583,8.484c2.251-0.032,4.398-0.952,5.973-2.56L482.026,41.856
			C484.76,38.661,484.76,33.95,482.026,30.755z"/>
	</g>
</g>
<g>
	<g>
		<path d="M216.468,296.744c-9.639-10.344-25.838-10.916-36.181-1.277l-172.8,172.8c-9.982,9.995-9.982,26.187,0,36.181
			c4.796,4.802,11.303,7.503,18.091,7.509c6.787-0.006,13.294-2.707,18.091-7.509l172.8-172.8
			C225.629,321.817,225.629,306.575,216.468,296.744z M204.776,319.616L31.551,492.331c-3.328,3.309-8.704,3.309-12.032,0
			c-3.309-3.328-3.309-8.704,0-12.032l172.8-172.8c1.61-1.597,3.79-2.488,6.059-2.475h0.341c2.293-0.013,4.494,0.896,6.108,2.524
			C208.145,310.894,208.124,316.297,204.776,319.616z"/>
	</g>
</g>
<g>
	<g>
		<path d="M247.018,264.328c-3.58-3.066-8.967-2.649-12.032,0.931l-30.208,30.208c-1.479,1.505-2.348,3.504-2.439,5.612
			c-0.204,4.708,3.448,8.69,8.156,8.894c2.288-0.099,4.441-1.114,5.973-2.816l30.549-29.867c0.334-0.286,0.645-0.597,0.931-0.931
			C251.014,272.78,250.596,267.393,247.018,264.328z"/>
	</g>
</g>
<g>
</g>
<g>
</g>
<g>
</g>
<g>
</g>
<g>
</g>
<g>
</g>
<g>
</g>
<g>
</g>
<g>
</g>
<g>
</g>
<g>
</g>
<g>
</g>
<g>
</g>
<g>
</g>
<g>
</g>
</svg>
